<svg width="40" height="40" viewBox="0 0 40 40" fill="none" xmlns="http://www.w3.org/2000/svg">
<path fill-rule="evenodd" clip-rule="evenodd" d="M20 0C31.0457 0 40 8.9543 40 20C40 31.0457 31.0457 40 20 40C8.9543 40 0 31.0457 0 20C0 8.9543 8.9543 0 20 0ZM20 1.5C9.78273 1.5 1.5 9.78273 1.5 20C1.5 30.2173 9.78273 38.5 20 38.5C30.2173 38.5 38.5 30.2173 38.5 20C38.5 9.78273 30.2173 1.5 20 1.5ZM30 15.4286C30 12.4305 27.5695 10 24.5714 10H15.4286C12.4305 10 10 12.4305 10 15.4286V24.5714C10 27.5695 12.4305 30 15.4286 30H24.5714C27.5695 30 30 27.5695 30 24.5714V15.4286ZM15.4285 11.7126H24.5714C26.6227 11.7126 28.2857 13.3756 28.2857 15.4269V24.5698C28.2857 26.6211 26.6227 28.284 24.5714 28.284H15.4285C13.3772 28.284 11.7143 26.6211 11.7143 24.5698V15.4269C11.7143 13.3756 13.3772 11.7126 15.4285 11.7126ZM20 15.7126C17.633 15.7126 15.7143 17.6314 15.7143 19.9983C15.7143 22.3653 17.633 24.284 20 24.284C22.3669 24.284 24.2857 22.3653 24.2857 19.9983C24.2857 17.6314 22.3669 15.7126 20 15.7126ZM19.9999 17.4252C21.4201 17.4252 22.5714 18.5765 22.5714 19.9967C22.5714 21.4168 21.4201 22.5681 19.9999 22.5681C18.5798 22.5681 17.4285 21.4168 17.4285 19.9967C17.4285 18.5765 18.5798 17.4252 19.9999 17.4252ZM25.1429 14C25.5768 14 25.9354 14.3225 25.9922 14.7408L26 14.8571C26 15.3317 25.6163 15.7154 25.1429 15.7154C24.7089 15.7154 24.3503 15.393 24.2936 14.9746L24.2857 14.8583C24.2857 14.3838 24.6695 14 25.1429 14Z" fill="#212121"/>
</svg>
